 <svg  version="1.0" xmlns="http://www.w3.org/2000/svg"  width="100.000000pt" viewBox="0 0 900.000000 333.000000"  preserveAspectRatio="xMidYMid meet">  <g transform="translate(0.000000,333.000000) scale(0.100000,-0.100000)" fill="#285c60" stroke="none"> <path d="M34 3251 c-2 -2 -4 -724 -4 -1603 l0 -1598 508 1 c279 0 536 4 572 9 85 11 170 29 195 39 11 5 43 17 70 26 166 59 345 192 429 320 55 83 106 189 106 218 0 8 7 32 17 53 25 59 24 338 -1 414 -54 160 -92 223 -199 333 -67 68 -192 155 -248 172 -13 4 -28 11 -34 15 -5 5 -29 13 -51 19 -41 11 -60 33 -48 52 3 6 33 23 67 39 209 99 340 243 423 465 16 42 19 77 19 215 -1 153 -3 171 -28 244 -89 258 -263 426 -535 515 -51 17 -104 31 -118 31 -14 0 -34 4 -44 10 -17 9 -1087 20 -1096 11z m941 -490 c73 -36 137 -121 171 -226 27 -85 27 -277 0 -356 -48 -141 -145 -229 -274 -248 -104 -16 -149 -14 -156 5 -9 23 -7 839 2 849 4 4 54 5 112 2 76 -4 116 -11 145 -26z m17 -1348 c72 -26 157 -106 195 -184 74 -154 64 -401 -23 -539 -71 -113 -181 -163 -350 -158 l-99 3 -3 444 c-2 349 1 447 10 453 20 14 215 0 270 -19z"/> <path d="M2659 3248 c-10 -4 -19 -11 -19 -15 0 -4 -7 -39 -16 -78 -8 -38 -19 -90 -24 -115 -5 -25 -15 -76 -23 -115 -8 -38 -22 -107 -30 -153 -9 -45 -19 -87 -22 -91 -3 -5 -9 -35 -15 -68 -5 -32 -16 -89 -25 -128 -8 -38 -22 -101 -29 -140 -8 -38 -19 -90 -24 -115 -6 -25 -16 -70 -22 -100 -5 -30 -19 -98 -30 -150 -11 -52 -27 -129 -36 -170 -9 -41 -20 -89 -25 -106 -5 -17 -9 -39 -9 -50 0 -11 -7 -46 -15 -79 -9 -33 -20 -84 -25 -115 -5 -30 -16 -86 -25 -125 -16 -70 -33 -155 -55 -270 -6 -33 -18 -80 -25 -105 -7 -25 -16 -63 -19 -85 -3 -22 -15 -85 -27 -140 -11 -55 -25 -118 -29 -140 -4 -22 -15 -74 -25 -115 -17 -78 -37 -178 -58 -292 -6 -36 -15 -70 -20 -74 -4 -4 -7 -20 -7 -36 l0 -28 323 2 322 3 7 45 c4 25 14 83 22 130 8 47 21 128 29 180 8 52 20 108 26 123 6 16 11 47 11 71 0 80 -16 77 344 74 l320 -3 8 -30 c5 -16 15 -73 23 -125 8 -52 22 -131 30 -175 8 -44 19 -114 25 -155 5 -41 14 -88 18 -105 l8 -30 324 -3 c187 -1 328 2 333 7 5 5 4 30 -3 63 -31 135 -42 187 -50 235 -4 28 -11 57 -15 64 -4 6 -14 44 -21 83 -7 39 -20 100 -28 136 -32 141 -46 207 -56 260 -6 30 -16 69 -21 86 -5 18 -14 54 -19 80 -4 27 -16 81 -25 119 -8 39 -23 104 -31 145 -9 41 -22 104 -30 140 -8 36 -19 83 -24 105 -29 136 -67 309 -96 435 -9 41 -22 102 -28 135 -7 33 -15 67 -18 75 -4 8 -11 40 -17 70 -6 30 -18 87 -26 125 -31 136 -47 210 -54 255 -4 25 -13 63 -19 85 -6 22 -20 85 -32 140 -11 55 -25 114 -30 131 -6 17 -10 40 -10 51 0 11 -7 43 -14 69 -8 27 -17 61 -21 76 l-5 28 -391 2 c-215 2 -399 0 -410 -4z m435 -856 c7 -26 23 -117 51 -277 7 -44 21 -120 30 -170 9 -49 21 -118 26 -153 4 -35 11 -66 13 -71 3 -4 12 -52 21 -107 8 -54 22 -135 30 -179 33 -178 39 -236 24 -246 -8 -5 -110 -9 -227 -9 -204 0 -261 7 -247 30 3 5 12 49 20 97 14 89 35 206 61 343 20 103 41 221 54 305 7 39 18 92 26 119 8 26 14 60 14 75 0 14 6 58 14 96 8 39 17 91 21 117 11 80 53 98 69 30z"/> <path d="M4384 3249 c-3 -5 -6 -2739 -4 -3187 0 -10 71 -12 338 -10 l337 3 3 682 2 683 25 0 c27 0 34 -12 100 -175 20 -49 43 -106 51 -125 9 -19 19 -44 24 -55 5 -11 38 -92 75 -180 85 -205 94 -226 105 -247 6 -10 10 -23 10 -29 0 -6 14 -40 30 -76 17 -35 30 -67 30 -69 0 -5 23 -59 50 -119 5 -11 32 -76 61 -145 28 -69 56 -131 61 -138 13 -15 748 -18 748 -3 0 5 -11 31 -24 58 -13 26 -41 84 -61 128 -48 105 -85 183 -128 275 -19 41 -51 109 -70 150 -19 41 -50 109 -70 150 -19 41 -49 107 -67 145 -102 219 -183 391 -226 481 -40 83 -42 100 -13 109 63 20 235 140 303 210 76 79 169 219 182 272 4 16 10 33 14 38 22 29 45 178 45 290 0 150 -19 236 -82 375 -50 110 -201 267 -334 348 -48 29 -90 52 -93 52 -3 0 -27 10 -54 23 -45 22 -157 53 -272 77 -60 12 -1089 20 -1096 9z m988 -517 c53 -25 129 -98 164 -158 53 -90 67 -150 67 -287 0 -85 -3 -131 -11 -139 -7 -7 -12 -22 -12 -34 0 -29 -64 -151 -98 -188 -34 -36 -85 -68 -142 -89 -48 -17 -204 -30 -252 -20 l-28 6 0 462 c0 254 3 465 8 469 4 4 63 6 132 4 102 -4 134 -9 172 -26z"/> <path d="M6659 3249 c-5 -3 -8 -653 -7 -1600 l3 -1594 760 0 760 0 0 250 0 250 -415 3 c-376 2 -416 4 -427 19 -18 24 -19 843 -1 861 9 9 104 12 364 12 194 0 359 3 368 6 14 5 16 37 16 255 l0 249 -22 0 c-13 0 -175 0 -361 0 -219 0 -344 3 -357 10 -19 10 -20 22 -20 379 0 296 3 371 13 380 10 7 137 12 408 13 l394 3 0 253 0 252 -733 3 c-404 1 -738 -1 -743 -4z"/> <path d="M8548 564 c-79 -29 -127 -70 -161 -142 -29 -61 -30 -170 -3 -222 59 -112 128 -154 251 -154 93 0 135 16 194 75 58 59 75 101 75 189 -1 93 -19 135 -85 194 -77 70 -182 93 -271 60z"/> </g> </svg>